<svg width="23" height="16" viewBox="0 0 23 16" fill="none" xmlns="http://www.w3.org/2000/svg">
<path d="M0 4.68349L2.09091 6.74104C7.28682 1.62803 15.7132 1.62803 20.9091 6.74104L23 4.68349C16.6541 -1.56116 6.35636 -1.56116 0 4.68349ZM8.36364 12.9137L11.5 16L14.6364 12.9137C14.2249 12.5077 13.736 12.1856 13.1979 11.9658C12.6597 11.746 12.0827 11.6329 11.5 11.6329C10.9173 11.6329 10.3403 11.746 9.80214 11.9658C9.26395 12.1856 8.77511 12.5077 8.36364 12.9137ZM4.18182 8.79859L6.27273 10.8561C7.65948 9.49263 9.53964 8.72672 11.5 8.72672C13.4604 8.72672 15.3405 9.49263 16.7273 10.8561L18.8182 8.79859C14.7827 4.82752 8.22773 4.82752 4.18182 8.79859Z" fill="#9D4EDD"/>
</svg>
