<svg width="64" height="64" viewBox="0 0 64 64" fill="none" xmlns="http://www.w3.org/2000/svg">
<path d="M32 0C14.336 0 0 14.336 0 32C0 49.664 14.336 64 32 64C49.664 64 64 49.664 64 32C64 14.336 49.664 0 32 0ZM23.328 45.728L11.84 34.24C11.5437 33.9437 11.3087 33.592 11.1484 33.2049C10.9881 32.8179 10.9055 32.403 10.9055 31.984C10.9055 31.565 10.9881 31.1501 11.1484 30.7631C11.3087 30.376 11.5437 30.0243 11.84 29.728C12.1363 29.4317 12.488 29.1967 12.8751 29.0364C13.2621 28.8761 13.677 28.7935 14.096 28.7935C14.515 28.7935 14.9299 28.8761 15.3169 29.0364C15.704 29.1967 16.0557 29.4317 16.352 29.728L25.6 38.944L47.616 16.928C48.2143 16.3297 49.0258 15.9935 49.872 15.9935C50.7182 15.9935 51.5297 16.3297 52.128 16.928C52.7263 17.5263 53.0625 18.3378 53.0625 19.184C53.0625 20.0302 52.7263 20.8417 52.128 21.44L27.84 45.728C27.544 46.0247 27.1923 46.26 26.8052 46.4206C26.4181 46.5812 26.0031 46.6638 25.584 46.6638C25.1649 46.6638 24.7499 46.5812 24.3628 46.4206C23.9757 46.26 23.624 46.0247 23.328 45.728Z" fill="#9D4EDD"/>
</svg>
