<svg width="92" height="92" viewBox="0 0 92 92" fill="none" xmlns="http://www.w3.org/2000/svg">
<circle cx="46" cy="46" r="46" fill="#9D4EDD"/>
<path d="M16 37.5869L21.5455 43.1165C35.3259 29.3753 57.6741 29.3753 71.4545 43.1165L77 37.5869C60.1695 20.8044 32.8582 20.8044 16 37.5869ZM38.1818 59.7055L46.5 68L54.8182 59.7055C53.7269 58.6144 52.4304 57.7487 51.003 57.1581C49.5756 56.5674 48.0454 56.2634 46.5 56.2634C44.9546 56.2634 43.4244 56.5674 41.997 57.1581C40.5696 57.7487 39.2731 58.6144 38.1818 59.7055ZM27.0909 48.6462L32.6364 54.1759C36.3143 50.5115 41.3008 48.4531 46.5 48.4531C51.6992 48.4531 56.6857 50.5115 60.3636 54.1759L65.9091 48.6462C55.2064 37.974 37.8214 37.974 27.0909 48.6462Z" fill="white"/>
</svg>
